<svg xmlns="http://www.w3.org/2000/svg" xmlns:xlink="http://www.w3.org/1999/xlink" style="text-rendering: geometricprecision; cursor: auto;" width="1010" height="849"><rect id="backgroundrect" width="100%" height="100%" x="0" y="0" fill="none" stroke="none"/><desc>Created with Snap</desc><defs><linearGradient x1="0" y1="0.5" x2="1" y2="0.5" id="linearGradientSklb13i4u1c"><stop offset="0%" stop-color="#3d90e3"/><stop offset="100%" stop-color="#3d90e3"/></linearGradient><linearGradient x1="0" y1="0.5" x2="1" y2="0.5" id="linearGradientSklb13i4u1l"><stop offset="0%" stop-color="#3d90e3"/><stop offset="100%" stop-color="#3d90e3"/></linearGradient><linearGradient x1="0" y1="0.5" x2="1" y2="0.5" id="linearGradientSklb13i4u1u"><stop offset="0%" stop-color="#3d90e3"/><stop offset="100%" stop-color="#3d90e3"/></linearGradient><linearGradient x1="0" y1="0.5" x2="1" y2="0.5" id="linearGradientSklb13i4u23"><stop offset="0%" stop-color="#3d90e3"/><stop offset="100%" stop-color="#3d90e3"/></linearGradient><linearGradient x1="0" y1="0.5" x2="1" y2="0.5" id="linearGradientSklb13i4u2c"><stop offset="0%" stop-color="#3d90e3"/><stop offset="100%" stop-color="#3d90e3"/></linearGradient><linearGradient x1="0" y1="0.5" x2="1" y2="0.5" id="linearGradientSklb13i4u2l"><stop offset="0%" stop-color="#3d90e3"/><stop offset="100%" stop-color="#3d90e3"/></linearGradient><linearGradient x1="0" y1="0.5" x2="1" y2="0.5" id="linearGradientSklb13i4u2v"><stop offset="0%" stop-color="#3d90e3"/><stop offset="100%" stop-color="#3d90e3"/></linearGradient><linearGradient x1="0" y1="0.5" x2="1" y2="0.5" id="linearGradientSklb13i4u2y"><stop offset="0%" stop-color="#3d90e3"/><stop offset="100%" stop-color="#3d90e3"/></linearGradient><linearGradient x1="0" y1="0.5" x2="1" y2="0.5" id="linearGradientSklb13i4u31"><stop offset="0%" stop-color="#3d90e3"/><stop offset="100%" stop-color="#3d90e3"/></linearGradient><linearGradient x1="0" y1="0.5" x2="1" y2="0.5" id="linearGradientSklb13i4u34"><stop offset="0%" stop-color="#3d90e3"/><stop offset="100%" stop-color="#3d90e3"/></linearGradient><linearGradient x1="0" y1="0.5" x2="1" y2="0.5" id="linearGradientSklb13i4u37"><stop offset="0%" stop-color="#3d90e3"/><stop offset="100%" stop-color="#3d90e3"/></linearGradient><linearGradient x1="0" y1="0.5" x2="1" y2="0.5" id="linearGradientSklb13i4u3a"><stop offset="0%" stop-color="#3d90e3"/><stop offset="100%" stop-color="#3d90e3"/></linearGradient><linearGradient x1="0" y1="0.5" x2="1" y2="0.5" id="linearGradientSklb13i4u3g"><stop offset="0%" stop-color="#3d90e3"/><stop offset="100%" stop-color="#3d90e3"/></linearGradient><linearGradient x1="0" y1="0.5" x2="1" y2="0.5" id="linearGradientSklb13i4u3j"><stop offset="0%" stop-color="#3d90e3"/><stop offset="100%" stop-color="#3d90e3"/></linearGradient><linearGradient x1="0" y1="0.5" x2="1" y2="0.5" id="linearGradientSklb13i4u3m"><stop offset="0%" stop-color="#3d90e3"/><stop offset="100%" stop-color="#3d90e3"/></linearGradient><linearGradient x1="0" y1="0.5" x2="1" y2="0.5" id="linearGradientSklb13i4u3p"><stop offset="0%" stop-color="#3d90e3"/><stop offset="100%" stop-color="#3d90e3"/></linearGradient><linearGradient x1="0" y1="0.5" x2="1" y2="0.5" id="linearGradientSklb13i4u3s"><stop offset="0%" stop-color="#3d90e3"/><stop offset="100%" stop-color="#3d90e3"/></linearGradient><linearGradient x1="0" y1="0.5" x2="1" y2="0.5" id="linearGradientSklb13i4u3v"><stop offset="0%" stop-color="#3d90e3"/><stop offset="100%" stop-color="#3d90e3"/></linearGradient><linearGradient x1="0" y1="0.5" x2="1" y2="0.5" id="linearGradientSklb13i4u3y"><stop offset="0%" stop-color="#164e87"/><stop offset="100%" stop-color="#164e87"/></linearGradient><linearGradient x1="0" y1="0.5" x2="1" y2="0.5" id="linearGradientSklb13i4u41"><stop offset="0%" stop-color="#3d90e3"/><stop offset="100%" stop-color="#3d90e3"/></linearGradient><linearGradient x1="0" y1="0.5" x2="1" y2="0.5" id="linearGradientSklb13i4u44"><stop offset="0%" stop-color="#3d90e3"/><stop offset="100%" stop-color="#3d90e3"/></linearGradient></defs><g class="currentLayer" style=""><title>Layer 1</title><g class="background-part" id="svg_9"><rect x="0" y="0" width="1010" height="849" fill="rgba(255,255,255,0.25)" style="" id="svg_10"/></g><g class="selector-part selected" id="svg_11"><rect x="253.5432183033713" y="266.37263339677384" width="487.50002050319256" height="362.49579699196545" fill="rgba(255,255,255,0)" style="/* transition: all 0.6s ease 0s; */" id="svg_12"/></g><g class="selector-part" id="svg_13"><rect x="0" y="0" width="0" height="0" fill="rgba(255,255,255,0)" style="cursor: move;" transform="matrix(1,0,0,1,441,300) " stroke-width="0" id="svg_14"/></g><g style="cursor: move; opacity: 1;" class="svg-clip svg-visible" id="svg_15"><rect x="0" y="0" width="29" height="29" fill="none" class="svg-hitbox" style="" transform="matrix(5.9568,0,0,5.9568,410.6271,303.6271) " stroke-width="0" id="svg_16"/><g id="svg_1" transform="matrix(5.9568,0,0,5.9568,410.6271,303.6271) " stroke-width="0"><svg width="29.999557495117188" height="29.999961853027344" viewBox="-0.999835507027413,-3.9929613111305935,29.999557456140593,29.999961311130594" id="svg_17"><desc>Created with Snap</desc><defs/><g id="svg_18"/><g id="svg_19"/><g id="svg_20"><path d="M12.5,21.006c-0.214,0-0.406-0.137-0.475-0.342l-1.921-5.763L4.342,12.98c-0.187-0.062-0.319-0.228-0.339-0.423   c-0.021-0.196,0.076-0.385,0.246-0.483l19-11c0.171-0.097,0.38-0.088,0.537,0.023c0.16,0.111,0.24,0.305,0.206,0.497l-3,17   c-0.026,0.15-0.12,0.28-0.255,0.353c-0.133,0.073-0.293,0.08-0.435,0.02l-6.434-2.757l-0.879,4.396   c-0.044,0.222-0.232,0.387-0.459,0.401C12.521,21.005,12.51,21.006,12.5,21.006z M5.711,12.382l4.947,1.649   c0.149,0.049,0.267,0.167,0.316,0.316l1.404,4.214l0.631-3.154c0.029-0.147,0.124-0.274,0.258-0.344   c0.133-0.071,0.291-0.077,0.43-0.017l6.42,2.751l2.704-15.321L5.711,12.382z" fill="url('#linearGradientSklb13i4u3g')" stroke="none" style="" id="svg_21"/></g></svg></g></g><g class="svg-clip svg-visible" style="cursor: move; opacity: 1;" id="svg_22"><rect x="0" y="0" width="23" height="25" fill="none" class="svg-hitbox" style="" transform="matrix(5.9568,0,0,5.9568,446.4974,304.5406) " stroke-width="0" id="svg_23"/><g id="svg_2" transform="matrix(5.9568,0,0,5.9568,446.4974,304.5406) " stroke-width="0"><svg width="23.999614715576172" height="25.000173568725586" viewBox="4.999750000000001,-3.9941735486509504,23.999614070073044,25.00017354865095" id="svg_24"><desc>Created with Snap</desc><defs/><g id="svg_25"/><g id="svg_26"/><g id="svg_27"><path d="M13.5,16.006c-0.101,0-0.202-0.03-0.291-0.093c-0.225-0.16-0.276-0.473-0.116-0.697l6.489-9.084l-8.729,8.728   c-0.195,0.195-0.512,0.195-0.707,0s-0.195-0.512,0-0.707l13-13c0.185-0.185,0.478-0.197,0.677-0.028   c0.198,0.168,0.234,0.46,0.084,0.672l-10,14C13.81,15.933,13.655,16.006,13.5,16.006z" fill="url('#linearGradientSklb13i4u44')" stroke="none" style="" id="svg_28"/></g></svg></g></g><g class="svg-clip svg-visible" style="cursor: move; opacity: 1;" id="svg_29"><rect x="0" y="0" width="13" height="15" fill="none" class="svg-hitbox" style="" transform="matrix(5.9568,0,0,5.9568,459.2811,395.3244) " stroke-width="0" id="svg_30"/><g id="svg_3" transform="matrix(5.9568,0,0,5.9568,459.2811,395.3244) " stroke-width="0"><svg width="13.999797821044922" height="15.000056266784668" viewBox="6.9996012566096475,11.005943896133829,13.999797486780702,15.000056103866171" id="svg_31"><desc>Created with Snap</desc><defs/><g id="svg_32"/><g id="svg_33"/><g id="svg_34"><path d="M12.5,21.006c-0.104,0-0.21-0.033-0.3-0.1c-0.221-0.166-0.266-0.479-0.101-0.7l3-4c0.167-0.222,0.48-0.265,0.7-0.1   c0.221,0.166,0.266,0.479,0.101,0.7l-3,4C12.802,20.937,12.651,21.006,12.5,21.006z" fill="url('#linearGradientSklb13i4u3m')" stroke="none" style="" id="svg_35"/></g></svg></g></g><g class="svg-clip svg-visible" style="cursor: move; opacity: 1;" id="svg_36"><rect x="0" y="0" width="11" height="11" fill="none" class="svg-hitbox" style="" transform="matrix(1,0,0,1,482.5,423.5) " stroke-width="0" id="svg_37"/><g id="svg_4" transform="matrix(1,0,0,1,482.5,423.5) " stroke-width="0"><svg width="11.721424102783203" height="11.692749977111816" viewBox="-4.99925,13.006249999999998,11.72142384351086,11.692750000000004" id="svg_38"><desc>Created with Snap</desc><defs/><g id="svg_39"/><g id="svg_40"/><g id="svg_41"><path d="M1.222,19.699c-0.121,0-0.242-0.043-0.339-0.132c-0.249-0.229-0.494-0.465-0.736-0.707c-0.195-0.195-0.195-0.512,0-0.707     c0.195-0.196,0.512-0.195,0.707-0.001c0.232,0.232,0.468,0.459,0.707,0.679c0.203,0.187,0.216,0.503,0.029,0.707     C1.491,19.644,1.356,19.699,1.222,19.699z" fill="url('#linearGradientSklb13i4u3p')" stroke="none" style="" id="svg_42"/></g></svg></g></g><g class="svg-clip svg-visible" style="cursor: move; opacity: 1;" id="svg_43"><rect x="0" y="0" width="16" height="12" fill="none" class="svg-hitbox" style="" transform="matrix(5.9568,0,0,5.9568,381.346,424.2595) " stroke-width="0" id="svg_44"/><g id="svg_5" transform="matrix(5.9568,0,0,5.9568,381.346,424.2595) " stroke-width="0"><svg width="16.197389602661133" height="12.786620140075684" viewBox="-2.4130569149022376,15.208379959092781,16.19738913996708,12.78662004090722" id="svg_45"><desc>Created with Snap</desc><defs/><g id="svg_46"/><g id="svg_47"/><g id="svg_48"><path d="M8.034,22.995c-0.472,0-0.956-0.05-1.438-0.149c-0.271-0.055-0.444-0.319-0.39-0.59c0.056-0.271,0.323-0.442,0.591-0.39     c0.416,0.085,0.832,0.128,1.237,0.128c0.002,0,0.004,0,0.006,0l0.225-0.004c0.325-0.018,0.509,0.206,0.519,0.481     S8.577,22.98,8.302,22.99l-0.261,0.005C8.039,22.995,8.036,22.995,8.034,22.995z M4.451,22.038c-0.078,0-0.156-0.018-0.23-0.056     c-0.466-0.242-0.943-0.533-1.419-0.863c-0.228-0.158-0.283-0.47-0.125-0.696c0.158-0.228,0.471-0.282,0.695-0.125     c0.44,0.307,0.881,0.575,1.31,0.797c0.245,0.127,0.341,0.429,0.213,0.674C4.806,21.94,4.632,22.038,4.451,22.038z" fill="url('#linearGradientSklb13i4u3s')" stroke="none" style="" id="svg_49"/></g></svg></g></g><g class="svg-clip svg-visible" style="cursor: move; opacity: 1;" id="svg_50"><rect x="0" y="0" width="11" height="11" fill="none" class="svg-hitbox" style="" transform="matrix(5.9568,0,0,5.9568,432.2379,427.2379) " stroke-width="0" id="svg_51"/><g id="svg_6" transform="matrix(5.9568,0,0,5.9568,432.2379,427.2379) " stroke-width="0"><svg width="11.895925521850586" height="11.453448295593262" viewBox="5.104967310024046,16.005551785806727,11.895925329802866,11.453448214193273" id="svg_52"><desc>Created with Snap</desc><defs/><g id="svg_53"/><g id="svg_54"/><g id="svg_55"><path d="M10.605,22.459c-0.194,0-0.379-0.114-0.46-0.303c-0.108-0.254,0.01-0.548,0.264-0.657     c0.277-0.119,0.558-0.259,0.837-0.424c0.237-0.14,0.543-0.062,0.685,0.177c0.141,0.238,0.062,0.544-0.177,0.685     c-0.309,0.182-0.629,0.345-0.952,0.483C10.738,22.447,10.671,22.459,10.605,22.459z" fill="url('#linearGradientSklb13i4u3v')" stroke="none" style="" id="svg_56"/></g></svg></g></g><g class="svg-text svg-visible" style="cursor: move; opacity: 1;" id="svg_57"><path fill="none" style="" d="M300.47499999999997,535.8 C476,535.3 496,535.3 671.5250000000001,535.8 " stroke-width="0" id="svg_58"/><path d="M323.125,524.0999984741211 Q317.17499999999995,524.0999984741211 312.775,521.9249984741211 Q308.375,519.7499984741211 306.025,515.7499984741211 Q303.67499999999995,511.74999847412107 303.67499999999995,506.4499984741211 L303.67499999999995,506.4499984741211 Q303.67499999999995,499.0999984741211 306.44999999999993,493.3999984741211 Q309.22499999999997,487.6999984741211 313.97499999999997,484.5749984741211 Q318.72499999999997,481.4499984741211 324.525,481.4499984741211 L324.525,481.4499984741211 Q329.92499999999995,481.4499984741211 332.72499999999997,484.2249984741211 Q335.525,486.99999847412107 335.525,491.5499984741211 L335.525,491.5499984741211 Q335.525,494.5999984741211 334.44999999999993,496.4499984741211 Q333.375,498.2999984741211 331.375,498.2999984741211 L331.375,498.2999984741211 Q329.97499999999997,498.2999984741211 329.17499999999995,497.6499984741211 Q328.375,496.99999847412107 328.375,495.74999847412107 L328.375,495.74999847412107 Q328.375,495.2999984741211 328.57499999999993,494.0999984741211 L328.57499999999993,494.0999984741211 Q328.875,492.5999984741211 328.875,491.6999984741211 L328.875,491.6999984741211 Q328.875,487.1499984741211 324.025,487.1499984741211 L324.025,487.1499984741211 Q320.72499999999997,487.1499984741211 317.72499999999997,489.2999984741211 Q314.72499999999997,491.4499984741211 312.875,495.62499847412107 Q311.025,499.7999984741211 311.025,505.5499984741211 L311.025,505.5499984741211 Q311.025,511.5499984741211 314.375,514.8249984741211 Q317.72499999999997,518.0999984741211 324.275,518.0999984741211 L324.275,518.0999984741211 Q327.525,518.0999984741211 330.84999999999997,517.274998474121 Q334.17499999999995,516.4499984741211 338.22499999999997,514.7499984741211 L338.22499999999997,514.7499984741211 Q338.97499999999997,514.4499984741211 339.47499999999997,514.4499984741211 L339.47499999999997,514.4499984741211 Q340.275,514.4499984741211 340.67499999999995,515.0499984741211 Q341.07499999999993,515.649998474121 341.07499999999993,516.5999984741211 L341.07499999999993,516.5999984741211 Q341.07499999999993,519.649998474121 337.775,521.0999984741211 L337.775,521.0999984741211 Q334.22499999999997,522.649998474121 330.4,523.3749984741211 Q326.57499999999993,524.0999984741211 323.125,524.0999984741211 L323.125,524.0999984741211 zM383.82499999999993,512.6999984741211 Q384.47499999999997,512.6999984741211 384.84999999999997,513.2999984741211 Q385.22499999999997,513.899998474121 385.22499999999997,514.9499984741211 L385.22499999999997,514.9499984741211 Q385.22499999999997,516.899998474121 384.275,518.0499984741211 L384.275,518.0499984741211 Q381.87499999999994,520.9499984741211 379.42499999999995,522.524998474121 Q376.97499999999997,524.0999984741211 373.62499999999994,524.0999984741211 L373.62499999999994,524.0999984741211 Q370.37499999999994,524.0999984741211 368.09999999999997,522.3499984741211 Q365.82499999999993,520.5999984741211 363.775,516.3499984741211 L363.775,516.3499984741211 Q362.12499999999994,512.9499984741211 361.17499999999995,511.3249984741211 Q360.22499999999997,509.6999984741211 359.29999999999995,508.99999847412107 Q358.37499999999994,508.2999984741211 357.025,508.1499984741211 L357.025,508.1499984741211 Q356.82499999999993,509.1999984741211 355.87499999999994,514.7499984741211 L355.87499999999994,514.7499984741211 Q355.4749999999999,517.2499984741211 355.37499999999994,517.7999984741211 L355.37499999999994,517.7999984741211 Q354.87499999999994,520.8499984741211 353.37499999999994,522.4749984741211 Q351.87499999999994,524.0999984741211 348.82499999999993,524.0999984741211 L348.82499999999993,524.0999984741211 Q345.4749999999999,524.0999984741211 342.9,522.1249984741211 Q340.32499999999993,520.149998474121 338.92499999999995,516.6249984741211 Q337.525,513.0999984741211 337.525,508.5999984741211 L337.525,508.5999984741211 Q337.525,500.1999984741211 340.44999999999993,494.0999984741211 Q343.37499999999994,487.99999847412107 348.65,484.7749984741211 Q353.92499999999995,481.5499984741211 360.82499999999993,481.5499984741211 L360.82499999999993,481.5499984741211 Q365.62499999999994,481.5499984741211 368.87499999999994,482.99999847412107 Q372.12499999999994,484.4499984741211 373.69999999999993,486.99999847412107 Q375.275,489.5499984741211 375.275,492.74999847412107 L375.275,492.74999847412107 Q375.275,495.5499984741211 373.94999999999993,498.2249984741211 Q372.62499999999994,500.8999984741211 369.97499999999997,502.9499984741211 Q367.32499999999993,504.99999847412107 363.525,505.99999847412107 L363.525,505.99999847412107 Q365.92499999999995,506.6499984741211 367.22499999999997,508.0999984741211 Q368.525,509.5499984741211 369.82499999999993,512.3499984741211 L369.82499999999993,512.3499984741211 Q371.22499999999997,515.3499984741211 372.59999999999997,516.7499984741211 Q373.97499999999997,518.149998474121 375.775,518.149998474121 L375.775,518.149998474121 Q377.37499999999994,518.149998474121 378.82499999999993,517.0749984741211 Q380.275,515.9999984741211 382.47499999999997,513.399998474121 L382.47499999999997,513.399998474121 Q383.07499999999993,512.6999984741211 383.82499999999993,512.6999984741211 L383.82499999999993,512.6999984741211 zM348.775,515.5999984741211 L350.12499999999994,508.0999984741211 Q348.42499999999995,508.0999984741211 347.79999999999995,507.2999984741211 Q347.17499999999995,506.49999847412107 347.17499999999995,505.49999847412107 L347.17499999999995,505.49999847412107 Q347.17499999999995,504.2999984741211 347.94999999999993,503.5999984741211 Q348.7249999999999,502.8999984741211 349.7249999999999,502.8999984741211 L349.7249999999999,502.8999984741211 L350.9749999999999,502.8999984741211 Q351.775,497.99999847412107 352.4749999999999,494.4499984741211 L352.4749999999999,494.4499984741211 Q353.12499999999994,491.1999984741211 356.67499999999995,491.1999984741211 L356.67499999999995,491.1999984741211 Q359.525,491.1999984741211 359.525,493.74999847412107 L359.525,493.74999847412107 Q359.525,494.2999984741211 359.47499999999997,494.5999984741211 L359.47499999999997,494.5999984741211 L357.9749999999999,502.8999984741211 Q360.67499999999995,502.74999847412107 362.9,501.5999984741211 Q365.12499999999994,500.4499984741211 366.44999999999993,498.3999984741211 Q367.775,496.3499984741211 367.775,493.74999847412107 L367.775,493.74999847412107 Q367.775,490.5999984741211 365.62499999999994,488.7999984741211 Q363.47499999999997,486.99999847412107 359.32499999999993,486.99999847412107 L359.32499999999993,486.99999847412107 Q354.42499999999995,486.99999847412107 350.74999999999994,489.4249984741211 Q347.07499999999993,491.8499984741211 345.025,496.62499847412107 Q342.9749999999999,501.3999984741211 342.9749999999999,508.24999847412107 L342.9749999999999,508.24999847412107 Q342.9749999999999,511.4499984741211 343.62499999999994,513.7499984741211 Q344.275,516.0499984741211 345.2249999999999,517.1999984741211 Q346.17499999999995,518.3499984741211 347.025,518.3499984741211 L347.025,518.3499984741211 Q347.67499999999995,518.3499984741211 348.0999999999999,517.6999984741211 Q348.525,517.0499984741211 348.775,515.5999984741211 L348.775,515.5999984741211 zM401.42499999999995,524.0999984741211 Q395.47499999999997,524.0999984741211 391.07499999999993,521.9249984741211 Q386.67499999999995,519.7499984741211 384.32499999999993,515.7499984741211 Q381.97499999999997,511.74999847412107 381.97499999999997,506.4499984741211 L381.97499999999997,506.4499984741211 Q381.97499999999997,499.0999984741211 384.74999999999994,493.3999984741211 Q387.525,487.6999984741211 392.275,484.5749984741211 Q397.025,481.4499984741211 402.82499999999993,481.4499984741211 L402.82499999999993,481.4499984741211 Q408.22499999999997,481.4499984741211 411.025,484.2249984741211 Q413.82499999999993,486.99999847412107 413.82499999999993,491.5499984741211 L413.82499999999993,491.5499984741211 Q413.82499999999993,494.5999984741211 412.75,496.4499984741211 Q411.67499999999995,498.2999984741211 409.67499999999995,498.2999984741211 L409.67499999999995,498.2999984741211 Q408.275,498.2999984741211 407.47499999999997,497.6499984741211 Q406.67499999999995,496.99999847412107 406.67499999999995,495.74999847412107 L406.67499999999995,495.74999847412107 Q406.67499999999995,495.2999984741211 406.875,494.0999984741211 L406.875,494.0999984741211 Q407.17499999999995,492.5999984741211 407.17499999999995,491.6999984741211 L407.17499999999995,491.6999984741211 Q407.17499999999995,487.1499984741211 402.32499999999993,487.1499984741211 L402.32499999999993,487.1499984741211 Q399.025,487.1499984741211 396.025,489.2999984741211 Q393.025,491.4499984741211 391.17499999999995,495.62499847412107 Q389.32499999999993,499.7999984741211 389.32499999999993,505.5499984741211 L389.32499999999993,505.5499984741211 Q389.32499999999993,511.5499984741211 392.67499999999995,514.8249984741211 Q396.025,518.0999984741211 402.57499999999993,518.0999984741211 L402.57499999999993,518.0999984741211 Q405.82499999999993,518.0999984741211 409.15,517.274998474121 Q412.47499999999997,516.4499984741211 416.525,514.7499984741211 L416.525,514.7499984741211 Q417.275,514.4499984741211 417.775,514.4499984741211 L417.775,514.4499984741211 Q418.57499999999993,514.4499984741211 418.97499999999997,515.0499984741211 Q419.375,515.649998474121 419.375,516.5999984741211 L419.375,516.5999984741211 Q419.375,519.649998474121 416.07499999999993,521.0999984741211 L416.07499999999993,521.0999984741211 Q412.525,522.649998474121 408.69999999999993,523.3749984741211 Q404.875,524.0999984741211 401.42499999999995,524.0999984741211 L401.42499999999995,524.0999984741211 zM421.07499999999993,511.5499984741211 Q419.87499999999994,511.6499984741211 419.15,510.8499984741211 Q418.42499999999995,510.0499984741211 418.42499999999995,508.5999984741211 L418.42499999999995,508.5999984741211 Q418.42499999999995,507.24999847412107 419.09999999999997,506.5999984741211 Q419.775,505.9499984741211 421.07499999999993,505.8499984741211 L421.07499999999993,505.8499984741211 L431.32499999999993,504.8499984741211 Q432.57499999999993,504.74999847412107 433.24999999999994,505.4749984741211 Q433.92499999999995,506.1999984741211 433.92499999999995,507.5999984741211 L433.92499999999995,507.5999984741211 Q433.92499999999995,510.2999984741211 431.32499999999993,510.5499984741211 L431.32499999999993,510.5499984741211 L421.07499999999993,511.5499984741211 zM452.07499999999993,524.2499984741211 Q445.42499999999995,524.2499984741211 441.42499999999995,521.7249984741211 Q437.42499999999995,519.1999984741211 437.42499999999995,513.9999984741211 L437.42499999999995,513.9999984741211 Q437.42499999999995,511.24999847412107 438.37499999999994,509.7999984741211 Q439.32499999999993,508.3499984741211 441.17499999999995,508.3499984741211 L441.17499999999995,508.3499984741211 Q442.525,508.3499984741211 443.37499999999994,509.0499984741211 Q444.22499999999997,509.74999847412107 444.22499999999997,510.8499984741211 L444.22499999999997,510.8499984741211 Q444.22499999999997,511.8499984741211 444.07499999999993,512.5999984741211 L444.07499999999993,512.5999984741211 Q444.07499999999993,512.7999984741211 443.99999999999994,513.2999984741211 Q443.92499999999995,513.7999984741211 443.92499999999995,514.3499984741211 L443.92499999999995,514.3499984741211 Q443.92499999999995,516.5999984741211 446.19999999999993,517.6999984741211 Q448.47499999999997,518.7999984741211 452.57499999999993,518.7999984741211 L452.57499999999993,518.7999984741211 Q456.82499999999993,518.7999984741211 459.22499999999997,517.274998474121 Q461.62499999999994,515.7499984741211 461.62499999999994,512.9999984741211 L461.62499999999994,512.9999984741211 Q461.62499999999994,511.2999984741211 460.525,510.0749984741211 Q459.42499999999995,508.8499984741211 457.775,508.0249984741211 Q456.12499999999994,507.1999984741211 453.12499999999994,505.99999847412107 L453.12499999999994,505.99999847412107 Q449.275,504.49999847412107 446.84999999999997,503.1499984741211 Q444.42499999999995,501.7999984741211 442.69999999999993,499.4749984741211 Q440.97499999999997,497.1499984741211 440.97499999999997,493.6999984741211 L440.97499999999997,493.6999984741211 Q440.97499999999997,490.0999984741211 442.9,487.2999984741211 Q444.82499999999993,484.49999847412107 448.44999999999993,482.9499984741211 Q452.07499999999993,481.3999984741211 456.97499999999997,481.3999984741211 L456.97499999999997,481.3999984741211 Q460.62499999999994,481.3999984741211 463.67499999999995,482.4749984741211 Q466.72499999999997,483.5499984741211 468.54999999999995,485.74999847412107 Q470.37499999999994,487.9499984741211 470.37499999999994,491.1499984741211 L470.37499999999994,491.1499984741211 Q470.37499999999994,494.2999984741211 469.42499999999995,495.8999984741211 Q468.47499999999997,497.49999847412107 466.62499999999994,497.49999847412107 L466.62499999999994,497.49999847412107 Q465.32499999999993,497.49999847412107 464.44999999999993,496.6999984741211 Q463.57499999999993,495.8999984741211 463.57499999999993,494.7999984741211 L463.57499999999993,494.7999984741211 Q463.57499999999993,493.8499984741211 463.72499999999997,493.0499984741211 L463.72499999999997,493.0499984741211 Q463.87499999999994,491.5499984741211 463.87499999999994,491.1499984741211 L463.87499999999994,491.1499984741211 Q463.87499999999994,489.0499984741211 461.82499999999993,487.9499984741211 Q459.775,486.8499984741211 456.72499999999997,486.8499984741211 L456.72499999999997,486.8499984741211 Q452.42499999999995,486.8499984741211 450.15,488.4249984741211 Q447.87499999999994,489.99999847412107 447.87499999999994,492.8499984741211 L447.87499999999994,492.8499984741211 Q447.87499999999994,494.74999847412107 449.04999999999995,496.0999984741211 Q450.22499999999997,497.4499984741211 451.97499999999997,498.3499984741211 Q453.72499999999997,499.24999847412107 456.87499999999994,500.49999847412107 L456.87499999999994,500.49999847412107 Q460.67499999999995,502.0499984741211 462.97499999999997,503.2999984741211 Q465.275,504.5499984741211 466.9,506.6999984741211 Q468.525,508.8499984741211 468.525,511.99999847412107 L468.525,511.99999847412107 Q468.525,517.899998474121 464.04999999999995,521.0749984741211 Q459.57499999999993,524.2499984741211 452.07499999999993,524.2499984741211 L452.07499999999993,524.2499984741211 zM511.525,494.0499984741211 Q511.525,498.2999984741211 509.32499999999993,501.8499984741211 Q507.12499999999994,505.3999984741211 502.92499999999995,507.6499984741211 Q498.72499999999997,509.8999984741211 492.92499999999995,510.2999984741211 L492.92499999999995,510.2999984741211 L490.775,522.3499984741211 Q489.525,529.2999984741211 483.97499999999997,529.2999984741211 L483.97499999999997,529.2999984741211 Q480.92499999999995,529.2999984741211 478.34999999999997,527.4999984741211 Q475.775,525.6999984741211 474.22499999999997,521.9999984741211 Q472.67499999999995,518.2999984741211 472.67499999999995,512.899998474121 L472.67499999999995,512.899998474121 Q472.67499999999995,502.74999847412107 475.94999999999993,495.6749984741211 Q479.22499999999997,488.5999984741211 484.74999999999994,485.0749984741211 Q490.275,481.5499984741211 496.92499999999995,481.5499984741211 L496.92499999999995,481.5499984741211 Q501.62499999999994,481.5499984741211 504.9,483.1999984741211 Q508.17499999999995,484.8499984741211 509.84999999999997,487.6749984741211 Q511.525,490.49999847412107 511.525,494.0499984741211 L511.525,494.0499984741211 zM493.82499999999993,505.1499984741211 Q504.07499999999993,503.8499984741211 504.07499999999993,494.49999847412107 L504.07499999999993,494.49999847412107 Q504.07499999999993,491.1999984741211 501.9,489.12499847412107 Q499.72499999999997,487.0499984741211 495.17499999999995,487.0499984741211 L495.17499999999995,487.0499984741211 Q490.025,487.0499984741211 486.19999999999993,490.2999984741211 Q482.37499999999994,493.5499984741211 480.29999999999995,499.3249984741211 Q478.22499999999997,505.0999984741211 478.22499999999997,512.4999984741211 L478.22499999999997,512.4999984741211 Q478.22499999999997,515.5999984741211 478.84999999999997,517.9999984741211 Q479.47499999999997,520.399998474121 480.44999999999993,521.7249984741211 Q481.42499999999995,523.0499984741211 482.32499999999993,523.0499984741211 L482.32499999999993,523.0499984741211 Q483.57499999999993,523.0499984741211 484.22499999999997,519.5999984741211 L484.22499999999997,519.5999984741211 L485.87499999999994,510.1499984741211 Q483.92499999999995,509.8499984741211 484.17499999999995,509.8999984741211 L484.17499999999995,509.8999984741211 Q482.67499999999995,509.6499984741211 482.22499999999997,508.9749984741211 Q481.775,508.2999984741211 481.775,507.24999847412107 L481.775,507.24999847412107 Q481.775,506.1499984741211 482.4,505.49999847412107 Q483.025,504.8499984741211 484.12499999999994,504.8499984741211 L484.12499999999994,504.8499984741211 Q484.62499999999994,504.8499984741211 484.87499999999994,504.8999984741211 L484.87499999999994,504.8999984741211 Q486.07499999999993,505.0999984741211 486.72499999999997,505.1499984741211 L486.72499999999997,505.1499984741211 Q487.37499999999994,501.24999847412107 488.57499999999993,494.6999984741211 L488.57499999999993,494.6999984741211 Q488.87499999999994,492.99999847412107 489.94999999999993,492.2749984741211 Q491.025,491.5499984741211 492.47499999999997,491.5499984741211 L492.47499999999997,491.5499984741211 Q494.12499999999994,491.5499984741211 494.84999999999997,492.1749984741211 Q495.57499999999993,492.7999984741211 495.57499999999993,494.1499984741211 L495.57499999999993,494.1499984741211 Q495.57499999999993,494.9499984741211 495.47499999999997,495.4499984741211 L495.47499999999997,495.4499984741211 L493.82499999999993,505.1499984741211 zM525.625,524.0999984741211 Q522.175,524.0999984741211 519.4,522.399998474121 Q516.6249999999999,520.6999984741211 515.025,517.4749984741211 Q513.425,514.2499984741211 513.425,509.8499984741211 L513.425,509.8499984741211 Q513.425,502.24999847412107 516.675,495.7749984741211 Q519.925,489.2999984741211 526.275,485.37499847412107 Q532.625,481.4499984741211 541.525,481.4499984741211 L541.525,481.4499984741211 Q543.8249999999999,481.4499984741211 546.4499999999999,481.7999984741211 Q549.0749999999999,482.1499984741211 551.2249999999999,482.8499984741211 L551.2249999999999,482.8499984741211 Q552.625,483.24999847412107 552.625,484.8499984741211 L552.625,484.8499984741211 Q552.625,486.1499984741211 551.65,487.2999984741211 Q550.675,488.4499984741211 549.375,488.4499984741211 L549.375,488.4499984741211 Q548.9749999999999,488.4499984741211 548.775,488.3999984741211 L548.775,488.3999984741211 Q546.175,487.7999984741211 544.3249999999999,487.5249984741211 Q542.4749999999999,487.24999847412107 540.425,487.24999847412107 L540.425,487.24999847412107 Q534.0749999999999,487.24999847412107 529.625,490.3249984741211 Q525.175,493.3999984741211 522.9749999999999,498.4499984741211 Q520.775,503.49999847412107 520.775,509.3499984741211 L520.775,509.3499984741211 Q520.775,513.5999984741211 522.4499999999999,515.9249984741211 Q524.125,518.2499984741211 526.8249999999999,518.2499984741211 L526.8249999999999,518.2499984741211 Q529.875,518.2499984741211 532.175,515.7499984741211 Q534.4749999999999,513.2499984741211 536.375,507.6499984741211 Q538.275,502.0499984741211 540.125,492.4499984741211 L540.125,492.4499984741211 Q540.425,491.0499984741211 541.3249999999999,490.5499984741211 Q542.2249999999999,490.0499984741211 543.7249999999999,490.0499984741211 L543.7249999999999,490.0499984741211 Q547.275,490.0499984741211 547.275,492.3499984741211 L547.275,492.3499984741211 Q547.275,492.74999847412107 547.125,493.3499984741211 L547.125,493.3499984741211 Q545.8249999999999,498.1999984741211 544.75,504.0749984741211 Q543.675,509.9499984741211 543.675,512.9999984741211 L543.675,512.9999984741211 Q543.675,515.6999984741211 544.4749999999999,516.9249984741211 Q545.275,518.149998474121 546.925,518.149998474121 L546.925,518.149998474121 Q548.525,518.149998474121 549.9749999999999,517.0749984741211 Q551.425,515.9999984741211 553.625,513.399998474121 L553.625,513.399998474121 Q554.2249999999999,512.6999984741211 554.9749999999999,512.6999984741211 L554.9749999999999,512.6999984741211 Q555.625,512.6999984741211 556,513.2999984741211 Q556.375,513.899998474121 556.375,514.9499984741211 L556.375,514.9499984741211 Q556.375,516.899998474121 555.425,518.0499984741211 L555.425,518.0499984741211 Q552.9749999999999,520.9999984741211 550.625,522.5499984741211 Q548.275,524.0999984741211 544.875,524.0999984741211 L544.875,524.0999984741211 Q541.375,524.0999984741211 539.2249999999999,522.0749984741211 Q537.0749999999999,520.0499984741211 536.525,516.3499984741211 L536.525,516.3499984741211 Q532.8249999999999,524.0999984741211 525.625,524.0999984741211 L525.625,524.0999984741211 zM561.525,524.0999984741211 Q559.675,524.0999984741211 558.875,523.274998474121 Q558.0749999999999,522.4499984741211 558.0749999999999,520.149998474121 L558.0749999999999,520.149998474121 Q558.0749999999999,518.5999984741211 558.375,516.399998474121 Q558.675,514.1999984741211 559.425,509.74999847412107 L559.425,509.74999847412107 Q559.525,509.1499984741211 560.2249999999999,504.87499847412107 Q560.925,500.5999984741211 561.4749999999999,495.8999984741211 L561.4749999999999,495.8999984741211 Q561.9749999999999,491.8999984741211 561.9749999999999,489.8999984741211 L561.9749999999999,489.8999984741211 Q561.9749999999999,487.6499984741211 560.3249999999999,487.6499984741211 L560.3249999999999,487.6499984741211 Q559.0749999999999,487.6499984741211 557.1999999999999,488.9749984741211 Q555.3249999999999,490.2999984741211 553.175,493.1999984741211 L553.175,493.1999984741211 Q552.4749999999999,494.1499984741211 551.625,494.1499984741211 L551.625,494.1499984741211 Q550.925,494.1499984741211 550.4,493.4749984741211 Q549.875,492.7999984741211 549.875,491.9499984741211 L549.875,491.9499984741211 Q549.875,491.0999984741211 550.175,490.3249984741211 Q550.4749999999999,489.5499984741211 551.275,488.4499984741211 L551.275,488.4499984741211 Q553.7249999999999,485.0999984741211 556.7249999999999,483.2749984741211 Q559.7249999999999,481.4499984741211 563.025,481.4499984741211 L563.025,481.4499984741211 Q565.775,481.4499984741211 567.15,483.1499984741211 Q568.525,484.8499984741211 568.525,488.0999984741211 L568.525,488.0999984741211 Q568.525,490.99999847412107 567.7249999999999,496.49999847412107 L567.7249999999999,496.49999847412107 Q570.2249999999999,489.0999984741211 574.0749999999999,485.2749984741211 Q577.925,481.4499984741211 583.125,481.4499984741211 L583.125,481.4499984741211 Q587.2249999999999,481.4499984741211 589.3,483.7749984741211 Q591.375,486.0999984741211 591.375,489.99999847412107 L591.375,489.99999847412107 Q591.375,492.1999984741211 590.7249999999999,495.3499984741211 L590.7249999999999,495.3499984741211 L587.675,509.6499984741211 Q587.175,512.149998474121 587.175,513.9499984741211 L587.175,513.9499984741211 Q587.175,516.0499984741211 588.15,517.0999984741211 Q589.125,518.149998474121 590.875,518.149998474121 L590.875,518.149998474121 Q592.525,518.149998474121 594.0999999999999,517.0499984741211 Q595.675,515.9499984741211 597.8249999999999,513.399998474121 L597.8249999999999,513.399998474121 Q598.425,512.6999984741211 599.175,512.6999984741211 L599.175,512.6999984741211 Q599.8249999999999,512.6999984741211 600.1999999999999,513.2999984741211 Q600.5749999999999,513.899998474121 600.5749999999999,514.9499984741211 L600.5749999999999,514.9499984741211 Q600.5749999999999,516.899998474121 599.625,518.0499984741211 L599.625,518.0499984741211 Q597.025,521.1999984741211 594.4749999999999,522.649998474121 Q591.925,524.0999984741211 589.125,524.0999984741211 L589.125,524.0999984741211 Q584.875,524.0999984741211 582.4749999999999,521.5749984741211 Q580.0749999999999,519.0499984741211 580.0749999999999,514.7999984741211 L580.0749999999999,514.7999984741211 Q580.0749999999999,513.149998474121 580.3499999999999,511.1999984741211 Q580.625,509.24999847412107 581.275,506.24999847412107 L581.275,506.24999847412107 L583.275,497.0999984741211 Q583.375,496.6499984741211 583.625,495.49999847412107 Q583.875,494.3499984741211 584.025,493.3249984741211 Q584.175,492.2999984741211 584.175,491.2999984741211 L584.175,491.2999984741211 Q584.175,489.6999984741211 583.275,488.74999847412107 Q582.375,487.7999984741211 580.7249999999999,487.7999984741211 L580.7249999999999,487.7999984741211 Q577.7249999999999,487.7999984741211 574.7249999999999,490.99999847412107 Q571.7249999999999,494.1999984741211 569.175,501.3249984741211 Q566.625,508.4499984741211 565.175,519.5499984741211 L565.175,519.5499984741211 Q564.8249999999999,522.0999984741211 564.15,523.0999984741211 Q563.4749999999999,524.0999984741211 561.525,524.0999984741211 L561.525,524.0999984741211 zM609.525,524.0999984741211 Q606.625,524.0999984741211 602.9749999999999,523.5999984741211 L602.9749999999999,523.5999984741211 Q600.9749999999999,523.3499984741211 600.2249999999999,522.5499984741211 Q599.4749999999999,521.7499984741211 599.5749999999999,519.9499984741211 L599.5749999999999,519.9499984741211 Q599.925,514.9999984741211 601.2249999999999,507.7249984741211 Q602.525,500.4499984741211 604.375,493.6999984741211 L604.375,493.6999984741211 Q604.7249999999999,492.4499984741211 605.775,491.9499984741211 Q606.8249999999999,491.4499984741211 608.525,491.4499984741211 L608.525,491.4499984741211 Q611.5749999999999,491.4499984741211 611.5749999999999,493.1499984741211 L611.5749999999999,493.1499984741211 Q611.5749999999999,493.8499984741211 611.275,494.74999847412107 L611.275,494.74999847412107 Q609.9749999999999,498.74999847412107 608.675,505.4749984741211 Q607.375,512.1999984741211 606.8249999999999,518.2999984741211 L606.8249999999999,518.2999984741211 Q608.3249999999999,518.4499984741211 610.2249999999999,518.4499984741211 L610.2249999999999,518.4499984741211 Q618.9749999999999,518.4499984741211 623.3,513.149998474121 Q627.625,507.8499984741211 627.625,498.99999847412107 L627.625,498.99999847412107 Q627.625,493.0499984741211 624.2249999999999,489.7999984741211 Q620.8249999999999,486.5499984741211 614.625,486.5499984741211 L614.625,486.5499984741211 Q610.625,486.5499984741211 606.6999999999999,487.7999984741211 Q602.775,489.0499984741211 599.625,491.0999984741211 L599.625,491.0999984741211 Q598.9749999999999,491.5499984741211 598.2249999999999,491.5499984741211 L598.2249999999999,491.5499984741211 Q597.375,491.5499984741211 596.875,490.8249984741211 Q596.375,490.0999984741211 596.375,489.0499984741211 L596.375,489.0499984741211 Q596.375,487.8499984741211 596.775,487.0749984741211 Q597.175,486.2999984741211 598.125,485.6499984741211 L598.125,485.6499984741211 Q601.5749999999999,483.2999984741211 606.2249999999999,482.0749984741211 Q610.875,480.8499984741211 615.175,480.8499984741211 L615.175,480.8499984741211 Q621.275,480.8499984741211 625.7249999999999,482.9749984741211 Q630.175,485.0999984741211 632.5749999999999,489.1999984741211 Q634.9749999999999,493.2999984741211 634.9749999999999,499.0999984741211 L634.9749999999999,499.0999984741211 Q634.9749999999999,506.6499984741211 631.9749999999999,512.274998474121 Q628.9749999999999,517.899998474121 623.2249999999999,520.9999984741211 Q617.4749999999999,524.0999984741211 609.525,524.0999984741211 L609.525,524.0999984741211 zM676.5749999999999,512.6999984741211 Q677.2249999999999,512.6999984741211 677.5999999999999,513.2999984741211 Q677.9749999999999,513.899998474121 677.9749999999999,514.9499984741211 L677.9749999999999,514.9499984741211 Q677.9749999999999,516.899998474121 677.025,518.0499984741211 L677.025,518.0499984741211 Q674.5749999999999,520.9499984741211 672.175,522.524998474121 Q669.775,524.0999984741211 666.8249999999999,524.0999984741211 L666.8249999999999,524.0999984741211 Q662.375,524.0999984741211 660.0999999999999,521.4499984741211 Q657.8249999999999,518.7999984741211 656.425,513.6999984741211 L656.425,513.6999984741211 L654.7249999999999,507.49999847412107 L642.925,522.0999984741211 Q641.925,523.3499984741211 640.875,523.7249984741211 Q639.8249999999999,524.0999984741211 638.425,524.0999984741211 L638.425,524.0999984741211 Q637.025,524.0999984741211 636.0999999999999,523.5749984741211 Q635.175,523.0499984741211 635.175,522.0999984741211 L635.175,522.0999984741211 Q635.175,520.8499984741211 636.625,519.2499984741211 L636.625,519.2499984741211 L652.8249999999999,500.7999984741211 L651.2249999999999,494.9499984741211 Q650.0749999999999,490.8499984741211 648.675,489.1999984741211 Q647.275,487.5499984741211 645.4749999999999,487.5499984741211 L645.4749999999999,487.5499984741211 Q642.8249999999999,487.5499984741211 639.275,491.3999984741211 L639.275,491.3999984741211 Q638.675,492.0499984741211 637.925,492.0499984741211 L637.925,492.0499984741211 Q637.175,492.0499984741211 636.65,491.4749984741211 Q636.125,490.8999984741211 636.125,489.99999847412107 L636.125,489.99999847412107 Q636.125,488.49999847412107 637.5749999999999,486.74999847412107 L637.5749999999999,486.74999847412107 Q639.625,484.3499984741211 642.025,482.8999984741211 Q644.425,481.4499984741211 647.7249999999999,481.4499984741211 L647.7249999999999,481.4499984741211 Q651.275,481.4499984741211 653.5749999999999,483.6749984741211 Q655.875,485.8999984741211 657.2249999999999,490.8499984741211 L657.2249999999999,490.8499984741211 L658.2249999999999,494.3499984741211 L666.9749999999999,483.6999984741211 Q667.9749999999999,482.49999847412107 669.025,481.99999847412107 Q670.0749999999999,481.49999847412107 671.5749999999999,481.49999847412107 L671.5749999999999,481.49999847412107 Q672.925,481.49999847412107 673.6999999999999,481.99999847412107 Q674.4749999999999,482.49999847412107 674.4749999999999,483.3999984741211 L674.4749999999999,483.3999984741211 Q674.4749999999999,484.5999984741211 673.125,486.1499984741211 L673.125,486.1499984741211 L660.125,501.1499984741211 L662.9749999999999,511.3499984741211 Q663.7249999999999,513.9999984741211 664.3249999999999,515.399998474121 Q664.925,516.7999984741211 665.8,517.4749984741211 Q666.675,518.149998474121 668.125,518.149998474121 L668.125,518.149998474121 Q669.675,518.149998474121 671.3499999999999,517.0499984741211 Q673.025,515.9499984741211 675.2249999999999,513.399998474121 L675.2249999999999,513.399998474121 Q675.8249999999999,512.6999984741211 676.5749999999999,512.6999984741211 L676.5749999999999,512.6999984741211 z" data-textpath="CRC-SPANDX" data-text-anchor="middle" data-font-size="100" data-letterspacing="0" data-side="left" data-offset="0" data-dx="0" data-dy="131.7" data-href="" data-font="Pacifico" data-font-src="/Content/clientfonts/pacifico.woff" data-font-scale="contain" data-xmlspace="preserve" fill="url('#linearGradientSklb13i4u3y')" stroke-width="0" id="svg_59"/><rect x="0" y="0" width="0" height="0" transform="matrix(0.5,0,0,0.5,486,458) " stroke-width="0" id="svg_60"/></g><g id="svg_61"><rect x="0" y="0" width="0" height="0" fill="rgba(255,136,0,0.1)" stroke="#ff8800" style="stroke-width: 1;" id="svg_62"/></g><g class="selector-part" id="svg_63"><rect x="0" y="0" width="0" height="0" fill="rgba(168,202,236,0.5)" stroke="#3399ff" style="stroke-width: 1;" id="svg_64"/></g><g class="selector-part" transform="matrix(1,0,0,1,441,300) " id="svg_65"><rect x="0" y="0" width="0" height="0" fill="none" stroke="#2390bb" style="stroke-width: 2;" id="svg_66"/><g transform="matrix(0.5,0,0,0.5,0,0) " id="svg_8"><svg xmlns="http://www.w3.org/2000/svg" xmlns:xlink="http://www.w3.org/1999/xlink" version="1.1" id="svg_7" x="0" y="-71" width="28.940000534057617" height="30" viewBox="0 -15 28.94 30" enable-background="new 0 -15 28.94 30" xml:space="preserve" style="cursor: pointer;">
<g id="svg_67">
	<path fill="rgba(0,0,0,0)" d="M23.355-9.979c-0.352-0.263-0.712-0.511-1.084-0.739L20.34-7.486c0.317,0.195,0.629,0.414,0.929,0.646   L23.355-9.979z" style="" id="svg_68"/>
	<path fill="rgba(0,0,0,0)" d="M28.894,0.081L25.092-0.13c0.292,2.317-0.217,4.718-1.539,6.756l-0.037-0.021   c-0.376,0.583-0.821,1.137-1.335,1.648c-3.808,3.809-9.902,3.942-13.871,0.396C8.282,8.623,8.255,8.602,8.227,8.576   C8.143,8.498,8.059,8.421,7.976,8.339c-0.052-0.051-0.104-0.1-0.153-0.152C7.8,8.163,7.776,8.14,7.753,8.115   c-0.084-0.091-0.167-0.18-0.25-0.271v0.002C4.312,4.293,4.087-0.98,6.821-4.782l4.123,4.124l3.401-14.306L0.037-11.566l4.102,4.098   C-0.064-2.14,0.193,5.554,4.917,10.587l0,0c0.012,0.016,0.023,0.025,0.033,0.037c0.091,0.098,0.181,0.199,0.278,0.293   c0.021,0.023,0.047,0.043,0.07,0.068c0.075,0.074,0.148,0.146,0.225,0.22c0.051,0.045,0.099,0.086,0.15,0.133   c0.053,0.047,0.104,0.094,0.156,0.14c0.144,0.13,0.291,0.257,0.439,0.375c0.01,0.012,0.018,0.016,0.027,0.023   c5.574,4.563,13.804,4.115,18.842-1.194C27.94,7.722,29.185,3.851,28.894,0.081z" style="" id="svg_69"/>
	<path fill="rgba(0,0,0,0)" d="M24.122-3.353l3.544-1.319c-0.426-0.932-0.962-1.826-1.611-2.662L22.88-5.276   C23.373-4.675,23.79-4.027,24.122-3.353z" style="" id="svg_70"/>
</g>
<desc>Created with Snap</desc><defs/><circle cx="14.5" cy="0" r="15" style="" fill="rgba(0,0,0,0)" id="svg_71"/></svg></g><rect x="0" y="-21" width="0" height="21" fill="rgba(255,255,255,0)" stroke="#2390bb" style="stroke-width: 1; cursor: pointer;" id="svg_72"/><circle cx="147" cy="158" r="0" fill="#ffffff" stroke="#2390bb" style="stroke-width: 2; cursor: se-resize;" id="svg_73"/><circle cx="0" cy="158" r="0" fill="#ffffff" stroke="#2390bb" style="stroke-width: 2; cursor: sw-resize;" id="svg_74"/><circle cx="147" cy="0" r="0" fill="#ffffff" stroke="#2390bb" style="stroke-width: 2; cursor: ne-resize;" id="svg_75"/><circle cx="0" cy="0" r="0" fill="#ffffff" stroke="#2390bb" style="stroke-width: 2; cursor: nw-resize;" id="svg_76"/><circle cx="74" cy="158" r="0" fill="#ffffff" stroke="#2390bb" style="stroke-width: 2; cursor: s-resize;" id="svg_77"/><circle cx="74" cy="0" r="0" fill="#ffffff" stroke="#2390bb" style="stroke-width: 2; cursor: n-resize;" id="svg_78"/><circle cx="0" cy="79" r="0" fill="#ffffff" stroke="#2390bb" style="stroke-width: 2; cursor: w-resize;" id="svg_79"/><circle cx="147" cy="79" r="0" fill="#ffffff" stroke="#2390bb" style="stroke-width: 2; cursor: e-resize;" id="svg_80"/><path stroke="#ff0000" fill="none" style="stroke-width: 3;" transform="matrix(1,0,0,1,441,300) " id="svg_81"/><line x1="441" x2="441" y1="300" y2="300" fill="rgba(255,255,255,0)" stroke="#2390bb" style="stroke-width: 1;" points="null" d="null" stroke-width="0" id="svg_82"/><line x1="441" x2="441" y1="300" y2="300" fill="rgba(255,255,255,0)" stroke="#2390bb" style="stroke-width: 1;" points="null" d="null" stroke-width="0" id="svg_83"/><circle cx="0" cy="0" r="0" fill="#ff0000" stroke="#2390bb" style="stroke-width: 2; cursor: pointer;" transform="matrix(1,0,0,1,441,300) " stroke-width="0" id="svg_84"/><circle cx="0" cy="0" r="0" fill="#ffa500" stroke="#2390bb" style="stroke-width: 2; cursor: pointer;" transform="matrix(1,0,0,1,441,300) " stroke-width="0" id="svg_85"/><circle cx="0" cy="0" r="0" fill="#ffa500" stroke="#2390bb" style="stroke-width: 2; cursor: pointer;" transform="matrix(1,0,0,1,441,300) " stroke-width="0" id="svg_86"/><circle cx="0" cy="0" r="0" fill="#ff0000" stroke="#2390bb" style="stroke-width: 2; cursor: pointer;" transform="matrix(1,0,0,1,441,300) " stroke-width="0" id="svg_87"/><g style="cursor: pointer; visibility: hidden; opacity: 0;" stroke-width="0" id="svg_88"><rect x="0" y="0" width="30" height="30" fill="#2390bb" rx="5" ry="5" style="" transform="matrix(1,0,0,1,391,285) " stroke-width="0" id="svg_89"/><rect x="6" y="6" width="18" height="4" style="" fill="#ffffff" transform="matrix(1,0,0,1,391,285) " stroke-width="0" id="svg_90"/><rect x="6" y="13" width="18" height="4" fill="#ffffff" style="" transform="matrix(1,0,0,1,391,285) " stroke-width="0" id="svg_91"/><rect x="6" y="20" width="18" height="4" fill="#ffffff" style="" transform="matrix(1,0,0,1,391,285) " stroke-width="0" id="svg_92"/></g></g></g></svg>